# xmcd
#
# Track frame offsets:
#      150
#      13120
#      23000
#      34990
#      50882
#      63467
#      77225
#      90830
#      104995
#      122580
#      132280
#      142325
# 
# Disc length: 2082 seconds
#
# Revision: 1
# Processed by: cddbd v1.5.2PL0 Copyright (c) Steve Scherf et al.
#
# Submitted via: FreeRIP 1.21
#
DISCID=ad08200c
DTITLE=Gino Paoli - I Grandi Successi Originali cd1
DYEAR=1900
DGENRE=pop
TTITLE0=Il cielo In una stanza
TTITLE1=La gatta
TTITLE2=Che cosa c'è
TTITLE3=Sapore di sale
TTITLE4=Senza fine
TTITLE5=Gli innamorati sono sempre soli
TTITLE6=Un uomo vivo
TTITLE7=Anche sè
TTITLE8=Non andare via
TTITLE9=Me in tutto il mondo
TTITLE10=Lei sta con tè
TTITLE11=Il poeta
EXTD=
EXTT0=
EXTT1=
EXTT2=
EXTT3=
EXTT4=
EXTT5=
EXTT6=
EXTT7=
EXTT8=
EXTT9=
EXTT10=
EXTT11=
PLAYORDER=
